<svg xmlns="http://www.w3.org/2000/svg" viewBox="0 0 29.57 30.49"><defs><style>.cls-1{fill:#fff;}</style></defs><title>avion-papel</title><g id="Capa_2" data-name="Capa 2"><g id="Capa_1-2" data-name="Capa 1"><path class="cls-1" d="M29.1.25A1.18,1.18,0,0,0,27.84.13L1.45,14.31A2.77,2.77,0,0,0,.33,18.05a2.81,2.81,0,0,0,1,1.07L8.7,23.41v5.13a2,2,0,0,0,3.38,1.33L14.84,27l4.57,2.64a2.76,2.76,0,0,0,3.8-.9,2.85,2.85,0,0,0,.34-.83l6-26.4A1.17,1.17,0,0,0,29.1.25ZM2.31,16.76a.4.4,0,0,1,.2-.36L23.27,5.29,9.6,21.21l-7.09-4.1A.39.39,0,0,1,2.31,16.76Zm8.75,10.79V24.79l1.69,1Zm10.16-.2a.4.4,0,0,1-.48.29l-.11-.05-8.94-5.16L26.19,5.49Z"/></g></g></svg>