<svg xmlns="http://www.w3.org/2000/svg" viewBox="0 0 85.25 94.67"><defs><style>.cls-1{fill:#fff;}</style></defs><title>Cuadro-3d</title><g id="Capa_2" data-name="Capa 2"><g id="Capa_1-2" data-name="Capa 1"><path class="cls-1" d="M85.25,35.39a1.58,1.58,0,0,0,0-.24s0-.09,0-.13a1.46,1.46,0,0,0-.11-.25l0-.09a1.54,1.54,0,0,0-.22-.29L52,.47A1.53,1.53,0,0,0,50.18.18L.81,26.27A1.52,1.52,0,0,0,.06,28a1.53,1.53,0,0,0-.06.39V56.49a1.53,1.53,0,0,0,.38,1L32.79,94.16l0,0,.09.08.2.16,0,0,.06,0,.25.1.1,0a1.51,1.51,0,0,0,.36,0,1.53,1.53,0,0,0,.48-.09h.06l.08,0,.13-.05L84.47,66.73a1.53,1.53,0,0,0,.78-1.33v-30S85.25,35.41,85.25,35.39Zm-4-.31L65.25,44,51.55,28.65l15.52-8.2L81.25,35.08ZM63.4,48.52V61.84l-3.55-1.29a1.53,1.53,0,0,0-1.79.58l-2.8,4.15V53.06l.28-.16ZM33.17,12.62,62.51,45.52l-8.45,4.71L24.94,17ZM51.34,51.75,34.25,61.27,19.82,45.42,37.58,36ZM50.59,3.41,64.86,18.15,49.46,26.3,35.95,11.15Zm-28.43,15L35.51,33.67,17.69,43.09,4,28ZM3.05,32.3,32.41,63.79V89.11L3.05,55.91ZM82.2,64.5l-46.74,26V64.09L52.2,54.76v15.5a1.53,1.53,0,0,0,2.79.86l4.93-7.29,4.48,1.63A1.53,1.53,0,0,0,66.45,64V46.82l9.11-5.08L82.2,38Z"/><path class="cls-1" d="M21.74,59.07a1.53,1.53,0,0,0-2.69,1v8.48a1.53,1.53,0,0,0,.36,1L26.61,78a1.53,1.53,0,0,0,2.69-1V68.52a1.53,1.53,0,0,0-.36-1Zm4.51,13.78L22.1,68V64.21l4.14,4.87Z"/></g></g></svg>