<svg xmlns="http://www.w3.org/2000/svg" viewBox="0 0 286.43 299.13"><defs><style>.cls-1{fill:#80282b;}</style></defs><title>Mapa</title><g id="Capa_2" data-name="Capa 2"><g id="Capa_1-2" data-name="Capa 1"><path class="cls-1" d="M14.22,53.87c1.34,1,1,2.17.85,3.25-.25,2.34,0,2.77,2.24,3.25,1.34.29.75,1,.38,1.51-1.14,1.48-.71,3-.23,4.49a1.43,1.43,0,0,0,1.41,1.15c.85,0,.9-.71.94-1.29.1-1.39.84-1.68,2.1-1.5,2.53.36,2.39.35,2.84,2.82C25,68.93,25.18,70,24,71a1.21,1.21,0,0,0,.13,1.78c1.06,1,.37,1.18-.52,1.37a2.44,2.44,0,0,1-2.12-.52c-1-.76-1.84-.71-2.36.7-.87,2.35-1.7,4.65-1.37,7.27.27,2.12,1.29,3.52,3.5,3.66,3,.19,6,.28,9,.32,2.1,0,4.19-2.47,4-4.57a2.74,2.74,0,0,1,0-1.13c1.6-4.58.91-9.23.37-13.85-.56-4.8-1.16-9.62-3.16-14.11a2.43,2.43,0,0,1,.31-2.33c1.64-2.73.9-5.72.94-8.62,0-.82-.69-1.32-1.32-1.77C29.72,38,28.5,36.64,28.53,34.5a1.9,1.9,0,0,0-1.22-1.76C25,31.5,22.77,30.16,20.45,29c-1.32-.67-1.48-1.36-.63-2.52A11.07,11.07,0,0,0,22,21.61c.19-1.32,1.5-1.17,2.41-1.34a38.49,38.49,0,0,1,5.9-.62c4.6-.15,8.59-2.31,12.84-3.6,1-.3.86-1.52,1-2.24a2.09,2.09,0,0,0,.05-.45c0-1.65.36-2.69,2-3.11a38.34,38.34,0,0,0,4.41-1.7,6.53,6.53,0,0,0,3.93-3.46c.95-2.26,3.15-2.9,5-3.88C62.94-.52,61.89-.6,64.42,2.32c3.06,3.54,3.35,8,4.21,12.15.56,2.75,1.65,4.68,4.22,5.86A33.49,33.49,0,0,1,77,22.84,5.09,5.09,0,0,0,81,24c1.89-.34,3.49,2.49,1.68,4.12a1.72,1.72,0,0,0-.54,1.49c.88,6.62,3.67,10.53.58,12a15,15,0,0,0-6,5.64c-1.11,1.67-2.4,3.23-3.62,4.83s-2.48,3.16-2.6,5.32A2.93,2.93,0,0,1,69.7,59a10.6,10.6,0,0,0-2.31,4.79,8.38,8.38,0,0,1-2.12,4.15,3.08,3.08,0,0,0-.83,2.39c0,1.69-.15,3.39.06,5.06.47,3.86-1.44,6.92-3.27,10.06l-.11.14c-3.26,3.37-3.69,7.59-3.77,11.89a7.35,7.35,0,0,1-.65,3.17c-1.53,3.1-.93,6.39-1,9.63a2.61,2.61,0,0,0,1.27,2c1.89,1.56,2.27,3.64.8,6.55a.17.17,0,0,0,.06.22c5.17,3.14,7.29,8.57,10.57,13.14a3,3,0,0,0,2.81,1.48c10.06-.17,20.13-.21,30.19-.48,3.48-.09,7-.2,10.44-.21a2.45,2.45,0,0,0,2.47-1.46c.62-1.21,1.37-2.35,2-3.57a30.12,30.12,0,0,1,6.52-8.48A15.12,15.12,0,0,0,127,112a27.35,27.35,0,0,1,5.4-10.25c.41-.5.76-1.06,1.19-1.56,1.67-1.91,3.1-2.13,5.2-.79,1.19.76,2.36,1.57,3.55,2.33.62.4,1.27,1.11,2,.35s2.45-1.28,2-2.86c-.55-1.87-.06-3.21,1.85-4.47a.16.16,0,0,0,.06-.18c-.67-2.38.17-3.46,1.9-3.89s3.14-.93,4.74-1.21a4.57,4.57,0,0,0,3.78-3.12c.55-1.41,1.4-2.7,2.09-4.06a2.51,2.51,0,0,1,1.72-1.39,4.72,4.72,0,0,0,3.07-2.46c1.37-2.34,3.29-4.35,4.3-6.91A1,1,0,0,1,171.4,71c4,2.49,8.21,1.13,12.37.89a9,9,0,0,0,2.67-.7,16.94,16.94,0,0,1,6.67-1.35,3.6,3.6,0,0,0,3.6-2c.82-1.53,2-2.89,2.77-4.42a23.21,23.21,0,0,1,5-5.83,1,1,0,0,1,1.65.31c1.05,2.76,3.64,3.6,5.88,4.85a9.76,9.76,0,0,1,2.68,2.08,11.39,11.39,0,0,0,4.31,3.4c2.51,1,4.1,3,5.62,5,.32.44.6,1,1.14,1.13,3.36,1,3.77,4,4.2,6.75.58,3.64.76,7.35,1,11a10.81,10.81,0,0,0,1.89,4.67.16.16,0,0,0,.14.08c3.56.1,4.69,1.16,3.67,4.11a5.72,5.72,0,0,1-3,3.69c-1.93.87-3.76,2-5.66,2.9-.88.43-1.09,1-.66,1.82a3.58,3.58,0,0,0,.19.45c1.37,1.94.64,3.58-.57,5.31-2.74,4-2.47,8.24-1.08,12.58a1.75,1.75,0,0,0,1.54,1.07c3,.56,4,3.09,5,6.14a.17.17,0,0,0,.23.11c1.65-.79,2.65-2.69,4.18-3.87s2.85-2.63,2.75-5c-.06-1.37,1.37-2.25,2.34-3.18A1.05,1.05,0,0,1,243,123c1.17.45,3.4,4.11,3.37,5.45a2,2,0,0,1-.91,1.79,61.55,61.55,0,0,1-5.75,3.87.09.09,0,0,0,0,.14c1.71,2,2.57,3.68,1.66,5.4-2.24,4.25-1.76,8.17,1.2,11.9,1.79,2.26,2,4.91,1.88,7.71-.16,2.63,1.18,3.92,3.87,4,1.32,0,2.66-.2,4-.21a1,1,0,0,1,.53.17c1.77,1.13,2.9.18,4.12-1,7-6.82,14.1-13.59,21.12-20.41.88-.85,1.29-.49,1.92.27,2.07,2.49,3.23,5.24,2.69,8.54-.07.42,0,.88,0,1.3-.4,2.48.6,4.35,2.28,6.11a5.66,5.66,0,0,1-.43,8.15c-1.86,1.69-3.67,3.43-6.5,3.13-.78-.08-1.14.58-1.41,1.18a7.19,7.19,0,0,1-4.36,4.11,7.11,7.11,0,0,0-4.75,5.73,4.94,4.94,0,0,1-2,3c-1.08.82-2,1.82-3,2.72-1.55,1.37-3.09,2.71-5.34,2.81a3.4,3.4,0,0,0-2.74,2.09c-1.55,2.81-4.18,4.15-6.95,5.35-.15.06-.3.19-.45.18-3.94-.23-5.16,3.31-7.45,5.36A2,2,0,0,0,239,204q1,4.62,2,9.25a22.65,22.65,0,0,1,.4,2.57c.14,1.51-.29,2.58-2.68,1.91-1.45,2-3.68,3.5-4.67,5.86a9.53,9.53,0,0,1-5.55,5.59,3.07,3.07,0,0,0-1.81,1.77c-1,2.34-2.54,4.39-2.86,7.05-.15,1.27-1.46,2.11-2.31,3.09-1.65,1.91-1.14,4,1.25,4.78s2.27.78,1.83,3a3.14,3.14,0,0,0,.36,2.5c.86,1.29.69,2.34-.79,3.06-.68.33-1.32.76-2,1.12-1.15.62-1.26,1.41-.42,2.37.32.37.67.71,1,1.08,1.09,1.22.9,2.09-.68,2.62-3,1-4.24,3.17-4.48,6.13,0,.22,0,.43-.05.65-.41,3.56-.42,3.49-4,4-2.12.32-2.68,2.33-3.59,3.88-.47.8-.12,2.2-1.27,2.46a6,6,0,0,1-4.6-.39c-1-.63-2.06-1.22-3.07-1.86a5.23,5.23,0,0,0-5.27-.25c-2.17.95-4.23,2.31-6.77,2.09a1.56,1.56,0,0,0-1.27.64,15.05,15.05,0,0,0-1.52,1.7,4.51,4.51,0,0,1-5,2.09c-1.26-.26-1.86.28-2.43,1.32-.85,1.53-1.43,3-.73,4.77a2.19,2.19,0,0,1-1.71,2.72c-1.49.21-3,.37-4.22-1-1.52-1.7-3.2-3.26-4.8-4.89a4.63,4.63,0,0,0-5.73-1.1c-3,1.3-4.21.74-7-2.38h0a9.12,9.12,0,0,1-4.35-1.75,2.4,2.4,0,0,0-3.47.47c-1.73,1.89-3,1.93-4.8.18a20.66,20.66,0,0,1-1.86-1.83c-1.63-2-3.82-2.48-6.24-2.51-.73,0-1,.26-.91,1,.33,1.85-.32,3.8.86,5.56-1.4,3.36-.29,6.46.78,9.54.53,1.54.23,2.47-1.39,2.76-2.62.47-5.27.78-7.91,1.16a2,2,0,0,1-1.39-.4c-3.13-2.06-6.34-.42-9.5-.14-.9.08-1.73,1.06-2.55,1.69a4.74,4.74,0,0,1-2.88.95c-3.26.09-6.53-.13-9.78.27a1.47,1.47,0,0,1-1.26-.22c-1.66-1.67-3.85-2.89-4.61-5.36-.48-1.56-1.11-3.07-1.57-4.64a4.88,4.88,0,0,1,.61-4.37,1.48,1.48,0,0,0-.07-2.06,7,7,0,0,1-1.56-3.36c-.5-2.44-2.08-4.28-3.45-6.23a5,5,0,0,1-.23-5.75,5.32,5.32,0,0,0,1-3.63c-.13-2.25-.53-4.56.82-6.67.65-1-.29-1.38-1-1.57a17.57,17.57,0,0,0-4-.49c-2.31-.07-6-3.59-5.68-5.65a3.31,3.31,0,0,0-.09-1.63,10.87,10.87,0,0,1-.2-7.45,2.54,2.54,0,0,0-2.7-3.52c-6,.32-12,.84-18.06,1.1a15.38,15.38,0,0,0-7.54,2.28c-1.11.68-2.24.29-3.34.17-2.42-.25-4.8-.78-7.26-.06-1.17.34-3.39-1.55-3.53-3a8.16,8.16,0,0,0-2.56-5.34,19.08,19.08,0,0,1-2.93-4.35,7,7,0,0,1,.15-6.3,3,3,0,0,0,0-2.62c-.44-1.35-.9-2.7-1.42-4a1.3,1.3,0,0,1,.62-1.41c.53-.42,1.06-.84.46-1.6s-1-1.31-1.86-.85c-1.48.75-1.94-.1-2.23-1.31-.36-1.55-1.66-2.62-2.09-4.16-.19-.66-1-.47-1.6-.5-2-.08-2.36-.86-1.51-3.06l0,0c1.12-1.29,2-2.5-.15-3.44a.91.91,0,0,1-.42-.66c-.1-1.51-.69-1.65-2-1-.91.47-3.06-2-2.63-3a3.67,3.67,0,0,0-.38-3.47,11.68,11.68,0,0,1-.93-5.88c0-.42.13-1,.55-1.12,2-.43,3-2.15,4.34-3.31a2.25,2.25,0,0,1,2.94-.28,8,8,0,0,0,1.87,1c1.13.29,2.35.48,2.64-1.19.13-.74.7-1.06,1.25-1.41a4.69,4.69,0,0,0,1.23-6.67,15.34,15.34,0,0,1-2.46-4.2c-.58-1.78.25-2.93,2.1-2.77a11.63,11.63,0,0,1,2.09.33,9.73,9.73,0,0,0,7.72-.73c1-.58,1.89-.11,2.71.49s1.89,1.28,3.14.73a1.22,1.22,0,0,1,1.34.36,2.45,2.45,0,0,0,2.08.71c1.12-.15,1.53.88,2.24,1.42.53.4.93,1.29,1.74.89A2.29,2.29,0,0,0,53,165.87c0-.43,0-.87,0-1.3-.37-3.65.19-7,3.07-9.83a.16.16,0,0,0,0-.16q-1.42-4.73-2.76-9.48a3.06,3.06,0,0,0-.86-1.36c-.89-.88-1.85-1.7-2.65-2.66-2.27-2.7-5-4.15-8.9-3a.16.16,0,0,1-.17-.06c-3.45-4.87-7-9.64-10.5-14.51-2.72-3.83-6.66-6.35-9.94-9.57a55,55,0,0,0-11-8.66c-2.41-1.39-3.72-4-5.61-5.95a10.8,10.8,0,0,0-1.67-1.77c-1.59-1-1.65-2.72-2-4.27-.35-1.39,2-1.08,1.63-2.58,3.95-.79,6.5-2.34,7.81-5.44a3.39,3.39,0,0,0,.37-2.63,2.75,2.75,0,0,1,.29-2.49,7.78,7.78,0,0,0,.76-3.48,2.62,2.62,0,0,1,2-2.63,9.12,9.12,0,0,0,1.48-.68C16.75,72.21,17.3,70,15.58,68a3,3,0,0,1-.79-3c.65-2.33-.59-4.36-1.06-6.5A9.05,9.05,0,0,1,14.22,53.87Z"/></g></g></svg>